<?xml version="1.0" encoding="UTF-8"?>
<svg width="20px" height="20px" viewBox="0 0 144 144" version="1.1" xmlns="http://www.w3.org/2000/svg" xmlns:xlink="http://www.w3.org/1999/xlink">
    <title>Heart</title>
    <g id="Devices-Copy-21" stroke="none" stroke-width="1" fill="none" fill-rule="evenodd">
        <path d="M36.5129006,81.4654679 C36.5132108,81.4651311 36.5135209,81.4647943 36.5138311,81.4644576 L25.8820304,69.9216783 C17.2670925,60.5669379 18.2273632,44.3571736 28.0268551,33.7161564 C37.826347,23.0751391 52.7541919,22.0324058 61.3691298,31.3871462 L71.9994642,42.9315176 C75.3392878,39.3048887 78.8830898,35.4567649 82.6308702,31.3871462 C91.2458081,22.0324058 106.173653,23.0751391 115.973145,33.7161564 C125.772637,44.3571736 126.732907,60.5669379 118.11797,69.9216783 C114.534973,73.8123627 111.13859,77.5004073 107.928822,80.9858121 L107.487099,81.4654679 L80.3306049,110.95401 C80.0224466,111.288631 79.7194464,111.617651 79.4216043,111.94107 L72,120 Z" id="Combined-Shape" stroke="#333333" stroke-width="7" fill="#333333"></path>
    </g>
</svg>
